<svg width="195" height="56" viewBox="0 0 195 56" fill="none" xmlns="http://www.w3.org/2000/svg">
<path d="M73.0021 4H81.6958C82.581 4 83.3994 4.12527 84.1511 4.37581C84.9027 4.60964 85.5457 4.94369 86.0802 5.37796C86.6147 5.81222 87.0322 6.33835 87.3329 6.95634C87.6335 7.55763 87.7839 8.21738 87.7839 8.93558C87.7839 9.65379 87.6001 10.3302 87.2327 10.9649C86.8819 11.5829 86.3975 12.1091 85.7796 12.5433C86.5479 12.9609 87.1659 13.5037 87.6335 14.1718C88.1012 14.8399 88.335 15.5748 88.335 16.3765C88.335 17.9132 87.7588 19.1575 86.6063 20.1095C85.4539 21.0616 83.959 21.5376 82.1217 21.5376H73.0021V4ZM81.4202 7.53258H77.3114V10.99H81.4202C82.0382 10.99 82.5309 10.8313 82.8984 10.514C83.2825 10.1966 83.4746 9.77906 83.4746 9.26128C83.4746 8.74351 83.2825 8.32594 82.8984 8.0086C82.5309 7.69125 82.0382 7.53258 81.4202 7.53258ZM81.796 18.005C82.4641 18.005 82.9902 17.838 83.3744 17.504C83.7753 17.1699 83.9757 16.7189 83.9757 16.1511C83.9757 15.5832 83.7753 15.1322 83.3744 14.7982C82.9902 14.4641 82.4641 14.2971 81.796 14.2971H77.3114V18.005H81.796Z" fill="#181815"/>
<path d="M93.5098 21.738V21.713L88.4239 8.28419H92.9085L95.8398 16.6271L99.2471 8.28419H103.632L97.6938 22.2141C96.9589 23.9344 96.107 25.1537 95.1383 25.8719C94.1695 26.5901 92.8918 26.9492 91.3051 26.9492C90.9877 26.9492 90.6787 26.9325 90.3781 26.8991C90.0774 26.8824 89.8269 26.849 89.6265 26.7989V23.3415C89.8102 23.3749 89.9939 23.3999 90.1777 23.4166C90.3781 23.4333 90.6119 23.4417 90.8792 23.4417C91.5139 23.4417 92.0567 23.2997 92.5077 23.0158C92.9586 22.7318 93.2927 22.3059 93.5098 21.738Z" fill="#181815"/>
<path d="M106.94 17.504V11.6664H104.26V8.28419H106.94V4.87688L110.999 4V8.28419H114.707V11.6664H110.999V16.7022C110.999 17.2868 111.124 17.7044 111.375 17.9549C111.642 18.1888 112.101 18.3057 112.753 18.3057C113.07 18.3057 113.371 18.289 113.655 18.2556C113.939 18.2055 114.248 18.1303 114.582 18.0301V21.3121C114.214 21.429 113.747 21.5209 113.179 21.5877C112.611 21.6712 112.135 21.713 111.751 21.713C110.164 21.713 108.961 21.3622 108.143 20.6607C107.341 19.9425 106.94 18.8903 106.94 17.504Z" fill="#181815"/>
<path d="M128.192 19.7839C127.357 20.4854 126.497 20.9948 125.611 21.3121C124.743 21.6295 123.757 21.7881 122.655 21.7881C121.653 21.7881 120.709 21.6128 119.824 21.262C118.939 20.9113 118.171 20.4269 117.519 19.8089C116.884 19.1909 116.375 18.4644 115.991 17.6292C115.623 16.7774 115.44 15.8755 115.44 14.9234C115.44 13.9714 115.615 13.0778 115.966 12.2427C116.333 11.3909 116.826 10.6559 117.444 10.0379C118.062 9.41996 118.788 8.93559 119.624 8.58483C120.475 8.23408 121.386 8.0587 122.354 8.0587C123.323 8.0587 124.217 8.24243 125.035 8.60989C125.854 8.97734 126.555 9.47842 127.14 10.1131C127.741 10.7478 128.209 11.5161 128.543 12.4181C128.877 13.3033 129.044 14.2637 129.044 15.2992V16.3014H119.599C119.866 16.9194 120.283 17.4288 120.851 17.8297C121.419 18.2138 122.087 18.4059 122.856 18.4059C123.407 18.4059 123.908 18.3224 124.359 18.1554C124.81 17.9716 125.194 17.7211 125.511 17.4037L128.192 19.7839ZM122.279 11.3658C121.611 11.3658 121.035 11.5495 120.551 11.917C120.066 12.2844 119.724 12.8022 119.523 13.4703H125.06C124.843 12.8356 124.484 12.3262 123.983 11.942C123.499 11.5579 122.931 11.3658 122.279 11.3658Z" fill="#181815"/>
<path d="M129.786 20.0594L131.715 17.3286C132.55 17.8297 133.31 18.1971 133.995 18.4309C134.679 18.6481 135.356 18.7566 136.024 18.7566C136.692 18.7566 137.218 18.6648 137.602 18.4811C138.003 18.2806 138.204 18.0217 138.204 17.7044C138.204 17.4539 138.095 17.2534 137.878 17.1031C137.661 16.9361 137.318 16.8192 136.851 16.7523L134.22 16.3515C132.917 16.1511 131.915 15.7168 131.214 15.0487C130.512 14.3639 130.161 13.4787 130.161 12.393C130.161 11.0568 130.671 10.0045 131.69 9.23623C132.709 8.46792 134.103 8.08376 135.874 8.08376C136.826 8.08376 137.778 8.22573 138.73 8.50967C139.699 8.77691 140.592 9.16942 141.411 9.6872L139.481 12.2928C138.763 11.8752 138.078 11.5746 137.427 11.3909C136.776 11.1904 136.124 11.0902 135.473 11.0902C134.955 11.0902 134.538 11.1821 134.22 11.3658C133.903 11.5328 133.744 11.7583 133.744 12.0422C133.744 12.3095 133.861 12.5266 134.095 12.6936C134.329 12.844 134.73 12.9609 135.297 13.0444L137.928 13.4453C139.231 13.629 140.233 14.0632 140.935 14.7481C141.653 15.4162 142.012 16.268 142.012 17.3035C142.012 17.9382 141.862 18.5312 141.561 19.0823C141.26 19.6335 140.843 20.1096 140.308 20.5104C139.79 20.9113 139.164 21.2286 138.429 21.4625C137.694 21.6796 136.901 21.7881 136.049 21.7881C134.796 21.7881 133.627 21.6462 132.542 21.3622C131.473 21.0616 130.554 20.6273 129.786 20.0594Z" fill="#181815"/>
<path d="M72 38.02V34.2119H87.7839V38.02H82.0465V51.7495H77.7373V38.02H72Z" fill="#181815"/>
<path d="M98.1344 49.9957C97.2992 50.6972 96.4391 51.2066 95.5538 51.524C94.6853 51.8413 93.6999 52 92.5975 52C91.5953 52 90.6517 51.8246 89.7664 51.4739C88.8812 51.1231 88.1129 50.6387 87.4615 50.0208C86.8268 49.4028 86.3174 48.6762 85.9332 47.8411C85.5657 46.9893 85.382 46.0873 85.382 45.1353C85.382 44.1832 85.5574 43.2896 85.9081 42.4545C86.2756 41.6027 86.7683 40.8678 87.3863 40.2498C88.0043 39.6318 88.7309 39.1474 89.566 38.7967C90.4178 38.4459 91.3281 38.2706 92.2969 38.2706C93.2656 38.2706 94.1592 38.4543 94.9776 38.8217C95.796 39.1892 96.4975 39.6903 97.0821 40.325C97.6834 40.9597 98.1511 41.728 98.4851 42.6299C98.8192 43.5151 98.9862 44.4755 98.9862 45.5111V46.5132H89.5409C89.8082 47.1312 90.2257 47.6407 90.7936 48.0415C91.3615 48.4257 92.0296 48.6177 92.7979 48.6177C93.3491 48.6177 93.8502 48.5342 94.3011 48.3672C94.7521 48.1835 95.1363 47.9329 95.4536 47.6156L98.1344 49.9957ZM92.2217 41.5776C91.5536 41.5776 90.9774 41.7614 90.493 42.1288C90.0086 42.4963 89.6662 43.0141 89.4658 43.6822H95.0027C94.7855 43.0475 94.4264 42.538 93.9253 42.1539C93.441 41.7697 92.8731 41.5776 92.2217 41.5776Z" fill="#181815"/>
<path d="M107.369 48.4925C107.921 48.4925 108.43 48.3756 108.898 48.1417C109.365 47.9079 109.816 47.5488 110.251 47.0644L112.656 49.5698C111.988 50.3381 111.169 50.9394 110.2 51.3737C109.232 51.7912 108.221 52 107.169 52C106.184 52 105.257 51.8246 104.388 51.4739C103.536 51.1231 102.793 50.6387 102.158 50.0208C101.54 49.4028 101.048 48.6762 100.68 47.8411C100.329 47.006 100.154 46.104 100.154 45.1353C100.154 44.1665 100.329 43.2646 100.68 42.4295C101.048 41.5776 101.54 40.8511 102.158 40.2498C102.793 39.6318 103.536 39.1474 104.388 38.7967C105.257 38.4292 106.184 38.2455 107.169 38.2455C108.255 38.2455 109.29 38.4626 110.276 38.8969C111.261 39.3312 112.096 39.9325 112.781 40.7008L110.301 43.2813C109.833 42.7635 109.357 42.3794 108.873 42.1288C108.388 41.8783 107.854 41.753 107.269 41.753C106.401 41.753 105.666 42.0787 105.064 42.7301C104.48 43.3815 104.188 44.1832 104.188 45.1353C104.188 46.0873 104.488 46.889 105.09 47.5404C105.708 48.1751 106.467 48.4925 107.369 48.4925Z" fill="#181815"/>
<path d="M114.01 51.7495V34.2119L118.069 33.335V39.398C118.553 39.0305 119.096 38.7466 119.697 38.5462C120.315 38.3457 120.958 38.2455 121.627 38.2455C123.18 38.2455 124.449 38.7466 125.435 39.7487C126.42 40.7509 126.913 42.0286 126.913 43.5819V51.7495H122.854V44.1331C122.854 43.4149 122.629 42.8387 122.178 42.4044C121.743 41.9535 121.167 41.728 120.449 41.728C119.931 41.728 119.472 41.8198 119.071 42.0036C118.67 42.1873 118.336 42.4462 118.069 42.7802V51.7495H114.01Z" fill="#181815"/>
<path d="M129.076 51.7495V38.496H133.134V39.398C133.619 39.0305 134.162 38.7466 134.763 38.5462C135.381 38.3457 136.024 38.2455 136.692 38.2455C138.245 38.2455 139.515 38.7466 140.5 39.7487C141.486 40.7509 141.978 42.0286 141.978 43.5819V51.7495H137.92V44.1331C137.92 43.4149 137.694 42.8387 137.243 42.4044C136.809 41.9535 136.233 41.728 135.515 41.728C134.997 41.728 134.537 41.8198 134.137 42.0036C133.736 42.1873 133.402 42.4462 133.134 42.7802V51.7495H129.076Z" fill="#181815"/>
<path d="M143.54 45.1353C143.54 44.1832 143.724 43.2896 144.091 42.4545C144.475 41.6027 144.985 40.8678 145.619 40.2498C146.271 39.6318 147.031 39.1474 147.899 38.7967C148.785 38.4292 149.728 38.2455 150.73 38.2455C151.733 38.2455 152.668 38.4292 153.536 38.7967C154.422 39.1474 155.182 39.6318 155.816 40.2498C156.468 40.8678 156.977 41.6027 157.345 42.4545C157.729 43.2896 157.921 44.1832 157.921 45.1353C157.921 46.0873 157.729 46.9893 157.345 47.8411C156.977 48.6762 156.468 49.4028 155.816 50.0208C155.182 50.6387 154.422 51.1231 153.536 51.4739C152.668 51.8246 151.733 52 150.73 52C149.728 52 148.785 51.8246 147.899 51.4739C147.031 51.1231 146.271 50.6387 145.619 50.0208C144.985 49.4028 144.475 48.6762 144.091 47.8411C143.724 46.9893 143.54 46.0873 143.54 45.1353ZM150.73 48.4925C151.632 48.4925 152.392 48.1668 153.01 47.5154C153.645 46.864 153.962 46.0706 153.962 45.1353C153.962 44.1832 153.645 43.3815 153.01 42.7301C152.392 42.0787 151.632 41.753 150.73 41.753C149.828 41.753 149.06 42.0787 148.425 42.7301C147.807 43.3815 147.498 44.1832 147.498 45.1353C147.498 46.0706 147.807 46.864 148.425 47.5154C149.06 48.1668 149.828 48.4925 150.73 48.4925Z" fill="#181815"/>
<path d="M163.632 33.335V51.7495H159.574V34.2119L163.632 33.335Z" fill="#181815"/>
<path d="M170.114 51.9749C168.711 51.9749 167.559 51.5908 166.657 50.8225C165.755 50.0542 165.304 49.0687 165.304 47.8661C165.304 46.6135 165.78 45.6364 166.732 44.9348C167.701 44.2333 169.045 43.8826 170.766 43.8826C171.284 43.8826 171.793 43.916 172.294 43.9828C172.795 44.0496 173.288 44.1415 173.772 44.2584V43.607C173.772 42.9389 173.555 42.4462 173.121 42.1288C172.703 41.7948 172.077 41.6278 171.242 41.6278C170.724 41.6278 170.139 41.7113 169.488 41.8783C168.837 42.0453 168.085 42.3126 167.233 42.68L165.78 39.6986C166.849 39.2142 167.893 38.8551 168.912 38.6213C169.947 38.3708 170.966 38.2455 171.968 38.2455C173.806 38.2455 175.234 38.6881 176.252 39.5733C177.271 40.4419 177.781 41.6695 177.781 43.2562V51.7495H173.772V50.9477C173.238 51.3152 172.67 51.5824 172.069 51.7495C171.484 51.8998 170.833 51.9749 170.114 51.9749ZM169.162 47.791C169.162 48.2085 169.346 48.5342 169.713 48.7681C170.081 49.0019 170.59 49.1188 171.242 49.1188C171.726 49.1188 172.177 49.0687 172.595 48.9685C173.029 48.8683 173.421 48.7096 173.772 48.4925V46.7888C173.388 46.6886 172.996 46.6134 172.595 46.5633C172.194 46.5132 171.785 46.4882 171.367 46.4882C170.666 46.4882 170.123 46.6051 169.739 46.8389C169.354 47.0561 169.162 47.3734 169.162 47.791Z" fill="#181815"/>
<path d="M194.273 45.1353C194.273 46.0873 194.09 46.9809 193.722 47.816C193.371 48.6345 192.887 49.3527 192.269 49.9706C191.651 50.5719 190.916 51.048 190.064 51.3987C189.229 51.7495 188.336 51.9248 187.384 51.9248C186.766 51.9248 186.164 51.8497 185.58 51.6994C184.995 51.5323 184.452 51.2985 183.951 50.9979V51.7495H179.943V34.2119L184.001 33.335V39.423C184.519 39.0556 185.07 38.78 185.655 38.5963C186.256 38.4125 186.874 38.3207 187.509 38.3207C188.444 38.3207 189.321 38.496 190.139 38.8468C190.975 39.1975 191.693 39.6819 192.294 40.2999C192.912 40.9179 193.396 41.6445 193.747 42.4796C194.098 43.298 194.273 44.1832 194.273 45.1353ZM186.807 41.7781C186.239 41.7781 185.722 41.8699 185.254 42.0537C184.786 42.2207 184.369 42.4796 184.001 42.8303V47.4653C184.352 47.7826 184.77 48.0332 185.254 48.2169C185.738 48.4006 186.256 48.4925 186.807 48.4925C187.793 48.4925 188.62 48.1751 189.288 47.5404C189.956 46.889 190.29 46.0873 190.29 45.1353C190.29 44.1832 189.947 43.3899 189.263 42.7552C188.595 42.1038 187.776 41.7781 186.807 41.7781Z" fill="#181815"/>
<path fill-rule="evenodd" clip-rule="evenodd" d="M31.094 10.9466L20.2118 0L9.19836 11.0786L14.8639 16.7776L0 20.7839L4.03118 35.9175L11.7704 33.8315L7.78764 48.7833L22.8322 52.8384L24.9059 45.0534L35.7871 55.9989L46.8005 44.9203L41.1352 39.2215L56 35.2149L51.9688 20.0813L44.2299 22.1672L48.2127 7.21545L33.1681 3.16042L31.094 10.9466ZM12.1318 33.7341L26.8634 37.7048L25.0028 44.6898L35.7871 33.8417L40.872 38.9568L36.9242 24.1363L43.8683 22.2646L29.1369 18.294L30.998 11.307L20.2118 22.1571L15.1285 17.0437L19.0758 31.8625L12.1318 33.7341Z" fill="#DA3333"/>
</svg>
